<?xml version="1.0" encoding="UTF-8" standalone="no"?>
<!DOCTYPE svg PUBLIC "-//W3C//DTD SVG 1.1//EN" "http://www.w3.org/Graphics/SVG/1.1/DTD/svg11.dtd">
<svg width="100%" height="100%" viewBox="0 0 1920 1080" version="1.1" xmlns="http://www.w3.org/2000/svg" xmlns:xlink="http://www.w3.org/1999/xlink" xml:space="preserve" xmlns:serif="http://www.serif.com/" style="fill-rule:evenodd;clip-rule:evenodd;stroke-linecap:round;stroke-linejoin:round;stroke-miterlimit:1.5;">
    <g transform="matrix(1,0,0,1,0,-2554.680481)">
        <g id="markers" transform="matrix(1,0,0,1,0,2554.680481)">
            <rect x="0" y="0" width="1920" height="1080" style="fill:none;"/>
            <g transform="matrix(1,0,0,1,0,-1270.811657)">
                <path d="M168.777,2194.958C168.777,2194.958 323.636,2216.109 422.972,2168.141C522.309,2120.172 552.2,2111.526 602.813,2111.526C653.425,2111.526 944.983,2110.888 870.606,2060.536C821.731,2027.449 917.063,2032.964 971.075,2025.787C1025.087,2018.611 1215.887,2006.2 1318.623,1984.293C1421.358,1962.386 1594.725,1947.278 1526.738,1921.972C1458.751,1896.665 1294.072,1853.985 1426.646,1828.679C1559.22,1803.372 1604.923,1785.242 1425.891,1754.648C1246.859,1724.054 1000.973,1684.25 1181.893,1659.635C1362.814,1635.02 1345.274,1612.405 1511.937,1617.126C1678.599,1621.847 1985.484,1582.188 1748.474,1559.526C1511.464,1536.864 1485.969,1476.431 1588.422,1471.238C1690.874,1466.044 1694.179,1447.159 1595.976,1434.411C1497.773,1421.664 1563.871,1331.761 1633.274,1326.293" style="fill:none;stroke:white;stroke-width:1px;"/>
            </g>
            <g id="base" transform="matrix(1,0,0,1,0,-2554.680481)">
                <circle cx="168.777" cy="3474.441" r="12.031" style="fill:rgb(235,235,235);"/>
            </g>
            <g id="C1" transform="matrix(1,0,0,1,433.42373,-2635.902114)">
                <circle cx="168.777" cy="3474.441" r="12.031" style="fill:rgb(235,235,235);"/>
            </g>
            <g id="C2" transform="matrix(1,0,0,1,811.491026,-2720.749695)">
                <circle cx="168.777" cy="3474.441" r="12.031" style="fill:rgb(235,235,235);"/>
            </g>
            <g id="C3" transform="matrix(1,0,0,1,1220.31857,-2776.952149)">
                <circle cx="168.777" cy="3474.441" r="12.031" style="fill:rgb(235,235,235);"/>
            </g>
            <g id="C4" transform="matrix(1,0,0,1,1372.004743,-2958.552544)">
                <circle cx="168.777" cy="3474.441" r="12.031" style="fill:rgb(235,235,235);"/>
            </g>
            <g id="C5" transform="matrix(1,0,0,1,984.026517,-3082.741822)">
                <circle cx="168.777" cy="3474.441" r="12.031" style="fill:rgb(235,235,235);"/>
            </g>
            <g id="C6" transform="matrix(1,0,0,1,1615.548669,-3150.728655)">
                <circle cx="168.777" cy="3474.441" r="12.031" style="fill:rgb(235,235,235);"/>
            </g>
            <g id="C7" transform="matrix(1,0,0,1,1384.0362,-3272.802781)">
                <circle cx="168.777" cy="3474.441" r="12.031" style="fill:rgb(235,235,235);"/>
            </g>
            <g id="C8" transform="matrix(1,0,0,1,1467.433381,-3418.959342)">
                <circle cx="168.777" cy="3474.441" r="12.031" style="fill:rgb(235,235,235);"/>
            </g>
            <g id="b1" transform="matrix(1,0,0,1,0.922116,-2570.578552)">
                <circle cx="282.886" cy="3499.37" r="15.898" style="fill:rgb(72,35,35);"/>
            </g>
            <g id="b2" transform="matrix(1,0,0,1,104.200742,-2586.476623)">
                <circle cx="282.886" cy="3499.37" r="15.898" style="fill:rgb(72,35,35);"/>
            </g>
            <g id="b3" transform="matrix(1,0,0,1,202.646819,-2629.594922)">
                <circle cx="282.886" cy="3499.37" r="15.898" style="fill:rgb(72,35,35);"/>
            </g>
            <g id="c1a" transform="matrix(1,0,0,1,423.257825,-2661.391064)">
                <circle cx="282.886" cy="3499.37" r="15.898" style="fill:rgb(72,35,35);"/>
            </g>
            <g id="c1b" transform="matrix(1,0,0,1,568.032316,-2677.289135)">
                <circle cx="282.886" cy="3499.37" r="15.898" style="fill:rgb(72,35,35);"/>
            </g>
            <g id="c1c" transform="matrix(1,0,0,1,599.828458,-2740.916128)">
                <circle cx="282.886" cy="3499.37" r="15.898" style="fill:rgb(72,35,35);"/>
            </g>
            <g id="c2a" transform="matrix(1,0,0,1,789.787279,-2756.814199)">
                <circle cx="282.886" cy="3499.37" r="15.898" style="fill:rgb(72,35,35);"/>
            </g>
            <g id="c2b" transform="matrix(1,0,0,1,917.041181,-2772.71227)">
                <circle cx="282.886" cy="3499.37" r="15.898" style="fill:rgb(72,35,35);"/>
            </g>
            <g id="c2c" transform="matrix(1,0,0,1,1009.254327,-2788.610341)">
                <circle cx="282.886" cy="3499.37" r="15.898" style="fill:rgb(72,35,35);"/>
            </g>
            <g id="c3a" transform="matrix(1,0,0,1,1194.602356,-2804.508412)">
                <circle cx="282.886" cy="3499.37" r="15.898" style="fill:rgb(72,35,35);"/>
            </g>
            <g id="c3b" transform="matrix(1,0,0,1,1166.016372,-2872.746113)">
                <circle cx="282.886" cy="3499.37" r="15.898" style="fill:rgb(72,35,35);"/>
            </g>
            <g id="c3c" transform="matrix(1,0,0,1,1134.22023,-2943.471528)">
                <circle cx="282.886" cy="3499.37" r="15.898" style="fill:rgb(72,35,35);"/>
            </g>
            <g id="c4a" transform="matrix(1,0,0,1,1174.315545,-3007.233202)">
                <circle cx="282.886" cy="3499.37" r="15.898" style="fill:rgb(72,35,35);"/>
            </g>
            <g id="c4b" transform="matrix(1,0,0,1,1071.51548,-3023.131273)">
                <circle cx="282.886" cy="3499.37" r="15.898" style="fill:rgb(72,35,35);"/>
            </g>
            <g id="c4c" transform="matrix(1,0,0,1,984.835284,-3039.029344)">
                <circle cx="282.886" cy="3499.37" r="15.898" style="fill:rgb(72,35,35);"/>
            </g>
            <g transform="matrix(1,0,0,1,968.937213,-3124.787423)">
                <circle cx="282.886" cy="3499.37" r="15.898" style="fill:rgb(72,35,35);"/>
            </g>
            <g id="c5b" transform="matrix(1,0,0,1,1176.38183,-3140.685494)">
                <circle cx="282.886" cy="3499.37" r="15.898" style="fill:rgb(72,35,35);"/>
            </g>
            <g id="c6a" transform="matrix(1,0,0,1,1452.098688,-3211.689544)">
                <circle cx="282.886" cy="3499.37" r="15.898" style="fill:rgb(72,35,35);"/>
            </g>
            <g id="c6b" transform="matrix(1,0,0,1,1365.675001,-3227.587615)">
                <circle cx="282.886" cy="3499.37" r="15.898" style="fill:rgb(72,35,35);"/>
            </g>
            <g id="c7a" transform="matrix(1,0,0,1,1365.675001,-3305.046563)">
                <circle cx="282.886" cy="3499.37" r="15.898" style="fill:rgb(72,35,35);"/>
            </g>
            <g id="c7b" transform="matrix(1,0,0,1,1282.68327,-3336.842705)">
                <circle cx="282.886" cy="3499.37" r="15.898" style="fill:rgb(72,35,35);"/>
            </g>
            <g id="c7c" transform="matrix(1,0,0,1,1282.68327,-3427.989781)">
                <circle cx="282.886" cy="3499.37" r="15.898" style="fill:rgb(72,35,35);"/>
            </g>
            <g id="c5a" transform="matrix(1,0,0,1,968.937213,-3124.787423)">
                <circle cx="282.886" cy="3499.37" r="15.898" style="fill:rgb(72,35,35);"/>
            </g>
            <g id="c5c" transform="matrix(1,0,0,1,1349.77693,-3156.583565)">
                <circle cx="282.886" cy="3499.37" r="15.898" style="fill:rgb(72,35,35);"/>
            </g>
        </g>
    </g>
</svg>
